<svg id="svg" xmlns="http://www.w3.org/2000/svg" xmlns:xlink="http://www.w3.org/1999/xlink" width="400" height="399.0267639902676" viewBox="0, 0, 400,399.0267639902676"><g id="svgg"><path id="path0" d="M57.646 15.842 C 37.038 19.307,19.948 35.038,14.209 55.826 L 12.895 60.584 12.758 199.757 C 12.605 353.301,12.412 343.030,15.634 352.172 C 22.143 370.640,37.104 383.578,56.549 387.554 C 62.219 388.714,338.879 388.726,344.989 387.567 C 366.938 383.403,383.313 367.078,388.162 344.526 C 389.011 340.574,389.051 334.184,389.051 201.460 L 389.051 62.530 387.998 58.122 C 382.567 35.386,365.728 19.436,343.320 15.801 C 337.009 14.778,63.743 14.817,57.646 15.842 M303.802 63.165 C 306.022 65.483,305.651 67.265,301.725 73.136 C 295.063 83.099,294.385 83.288,265.999 83.105 L 244.790 82.968 243.452 81.630 C 241.146 79.324,241.534 77.323,245.391 71.621 C 252.065 61.756,251.815 61.827,280.079 61.812 L 302.494 61.800 303.802 63.165 M289.242 92.579 C 287.696 94.787,271.549 117.725,253.359 143.552 C 235.169 169.380,220.284 190.745,220.281 191.032 C 220.278 191.319,242.772 224.126,270.267 263.937 C 311.005 322.921,320.151 336.449,319.680 337.016 C 319.047 337.779,255.455 338.107,255.493 337.348 C 255.503 337.147,256.357 335.563,257.391 333.828 C 259.239 330.728,259.257 330.651,258.417 329.448 C 257.947 328.775,242.834 306.873,224.833 280.779 C 206.832 254.684,191.852 233.064,191.544 232.736 C 191.113 232.276,183.602 242.624,158.929 277.667 C 141.298 302.708,126.629 323.290,126.332 323.403 C 126.034 323.517,112.936 323.553,97.224 323.484 L 68.656 323.358 149.613 208.392 C 194.139 145.161,231.355 92.332,232.315 90.995 L 234.062 88.564 263.057 88.564 L 292.052 88.564 289.242 92.579 " stroke="none" fill="#000000" fill-rule="evenodd"></path></g></svg>