<svg id="svg" xmlns="http://www.w3.org/2000/svg" xmlns:xlink="http://www.w3.org/1999/xlink" width="400" height="132.28130360205833" viewBox="0, 0, 400,132.28130360205833"><g id="svgg"><path id="path0" d="M24.214 13.387 C 18.403 14.364,13.584 18.800,11.966 24.662 L 11.595 26.003 11.556 65.180 C 11.513 108.402,11.459 105.513,12.367 108.091 C 14.203 113.299,18.422 116.947,23.905 118.068 C 25.504 118.395,103.519 118.399,105.242 118.072 C 111.432 116.898,116.049 112.294,117.416 105.935 C 117.656 104.821,117.667 103.021,117.667 65.660 L 117.667 26.552 117.370 25.309 C 115.839 18.898,111.090 14.400,104.772 13.375 C 102.992 13.087,25.934 13.098,24.214 13.387 M164.068 24.987 C 148.584 26.622,136.870 35.845,134.176 48.524 L 133.859 50.017 133.823 78.319 L 133.786 106.621 138.728 106.621 L 143.671 106.621 143.671 88.851 L 143.671 71.081 157.050 71.081 L 170.429 71.081 170.429 88.851 L 170.429 106.621 175.163 106.621 L 179.897 106.621 179.897 65.729 L 179.897 24.837 172.521 24.855 C 168.465 24.865,164.661 24.925,164.068 24.987 M187.076 25.105 C 186.401 25.516,186.346 25.736,186.346 28.055 L 186.346 30.193 186.816 30.705 L 187.285 31.218 190.624 31.260 C 194.474 31.309,194.764 31.275,195.289 30.712 L 195.678 30.297 195.678 28.078 C 195.678 24.736,195.824 24.837,190.985 24.838 C 187.789 24.838,187.478 24.859,187.076 25.105 M221.323 25.256 C 212.105 26.039,206.103 33.737,206.107 44.773 C 206.111 56.441,212.841 64.217,222.935 64.219 C 230.346 64.221,236.091 59.980,237.868 53.197 C 238.249 51.741,238.431 51.852,235.749 51.900 L 233.635 51.938 233.270 52.980 C 230.882 59.794,221.984 62.152,215.815 57.604 C 208.881 52.492,208.721 37.449,215.544 32.033 C 221.606 27.221,230.914 29.499,233.237 36.364 L 233.632 37.530 235.874 37.568 L 238.117 37.606 238.032 36.981 C 237.213 31.009,231.299 25.838,224.700 25.325 C 224.096 25.278,223.386 25.218,223.122 25.192 C 222.858 25.166,222.048 25.195,221.323 25.256 M364.734 44.734 L 364.734 63.808 366.930 63.808 L 369.125 63.808 369.125 44.734 L 369.125 25.660 366.930 25.660 L 364.734 25.660 364.734 44.734 M93.628 26.731 C 94.254 27.385,94.149 27.887,93.042 29.543 C 91.164 32.352,90.973 32.406,82.968 32.354 L 76.987 32.316 76.610 31.938 C 75.960 31.288,76.069 30.724,77.157 29.116 C 79.038 26.334,78.968 26.354,86.938 26.350 L 93.259 26.346 93.628 26.731 M379.005 31.835 L 379.005 35.266 376.878 35.266 L 374.751 35.266 374.751 37.118 L 374.751 38.971 376.870 38.971 L 378.988 38.971 379.035 48.611 C 379.092 60.126,379.058 59.922,381.239 61.982 C 383.134 63.773,386.708 64.586,389.331 63.824 C 390.094 63.603,390.082 63.683,389.640 61.783 C 389.452 60.972,389.269 60.185,389.235 60.034 C 389.176 59.777,389.059 59.760,387.406 59.760 C 385.682 59.760,385.624 59.750,384.971 59.347 C 383.453 58.409,383.406 58.052,383.401 47.378 L 383.396 38.976 386.449 38.939 L 389.503 38.902 389.541 37.087 L 389.579 35.271 386.522 35.234 L 383.465 35.197 383.428 31.801 L 383.391 28.405 381.198 28.405 L 379.005 28.405 379.005 31.835 M186.346 69.846 L 186.346 106.621 191.081 106.621 L 195.815 106.621 195.815 69.846 L 195.815 33.070 191.081 33.070 L 186.346 33.070 186.346 69.846 M89.522 35.026 C 89.086 35.648,84.533 42.117,79.403 49.400 C 74.274 56.683,70.077 62.708,70.076 62.789 C 70.074 62.940,85.929 85.969,87.547 88.165 C 90.812 92.597,98.257 103.634,98.105 103.817 C 97.927 104.032,79.994 104.125,80.005 103.911 C 80.008 103.854,80.249 103.408,80.540 102.920 L 81.069 102.032 80.644 101.410 C 78.038 97.603,71.570 88.286,71.496 88.233 C 71.443 88.196,69.314 85.139,66.765 81.441 C 64.216 77.743,62.059 74.641,61.972 74.548 C 61.850 74.418,60.720 75.934,57.029 81.178 C 54.397 84.917,52.171 88.050,52.081 88.139 C 51.992 88.229,50.077 90.916,47.826 94.112 C 45.575 97.307,43.665 99.947,43.582 99.979 C 43.499 100.011,39.805 100.021,35.375 100.001 L 27.319 99.966 31.189 94.474 C 33.318 91.453,35.523 88.358,36.089 87.596 C 36.655 86.834,45.393 74.443,55.506 60.061 L 73.894 33.910 82.104 33.902 L 90.314 33.894 89.522 35.026 M170.212 34.663 C 170.408 34.738,170.429 36.057,170.429 48.179 L 170.429 61.612 157.050 61.612 L 143.671 61.612 143.671 56.210 C 143.671 50.010,143.767 49.308,144.955 46.861 C 148.541 39.477,157.540 34.669,167.913 34.595 C 169.058 34.586,170.092 34.617,170.212 34.663 M254.202 35.073 C 246.407 36.454,241.961 45.114,244.305 54.354 C 246.350 62.415,254.096 66.413,261.711 63.337 C 271.629 59.331,272.398 41.810,262.893 36.417 C 260.471 35.043,257.215 34.540,254.202 35.073 M286.930 35.051 C 284.462 35.574,282.816 36.649,281.548 38.566 C 280.523 40.116,280.480 40.072,280.480 37.461 L 280.480 35.266 278.353 35.266 L 276.225 35.266 276.260 49.503 L 276.295 63.739 278.449 63.777 L 280.604 63.815 280.653 54.309 C 280.708 43.791,280.682 44.117,281.624 42.336 C 284.078 37.698,291.421 37.530,293.690 42.058 C 294.414 43.502,294.393 43.185,294.471 53.791 L 294.545 63.739 296.713 63.777 L 298.881 63.815 298.836 53.348 C 298.785 41.609,298.820 42.036,297.720 39.726 C 295.980 36.071,291.424 34.098,286.930 35.051 M314.558 35.048 C 305.408 36.791,303.480 46.804,311.664 50.081 C 312.770 50.524,313.808 50.809,317.666 51.731 C 321.038 52.537,322.063 53.081,322.743 54.425 C 324.453 57.807,320.369 61.052,315.241 60.386 C 312.449 60.023,310.804 58.802,310.051 56.533 L 309.835 55.884 307.817 56.390 C 305.515 56.966,305.570 56.909,306.049 58.227 C 309.269 67.100,326.292 66.064,327.536 56.920 C 328.216 51.922,325.789 49.550,317.947 47.546 C 313.747 46.473,312.879 46.136,311.968 45.221 C 309.483 42.728,311.608 39.191,315.878 38.713 C 319.144 38.348,321.374 39.346,322.740 41.784 C 322.993 42.237,323.209 42.620,323.219 42.637 C 323.247 42.681,326.766 41.701,326.952 41.598 C 327.400 41.350,325.810 38.703,324.406 37.361 C 322.254 35.302,318.210 34.353,314.558 35.048 M334.308 45.523 C 334.363 56.594,334.359 56.521,335.126 58.582 C 337.636 65.325,347.798 66.067,351.477 59.777 C 352.214 58.518,352.236 58.560,352.278 61.304 L 352.316 63.739 354.477 63.777 L 356.638 63.815 356.638 49.540 L 356.638 35.266 354.443 35.266 L 352.247 35.266 352.247 44.301 C 352.247 52.913,352.234 53.386,351.970 54.418 C 350.451 60.357,342.132 61.851,339.480 56.662 C 338.736 55.207,338.750 55.420,338.697 44.974 L 338.648 35.266 336.453 35.266 L 334.257 35.266 334.308 45.523 M258.593 38.998 C 267.275 40.615,267.434 58.128,258.787 60.166 C 252.465 61.656,247.791 56.724,248.136 48.928 C 248.454 41.760,252.549 37.871,258.593 38.998 M205.969 88.851 L 205.969 106.346 217.839 106.346 L 229.708 106.346 229.708 103.259 L 229.708 100.172 221.612 100.172 L 213.516 100.172 213.516 95.986 L 213.516 91.801 220.995 91.801 L 228.473 91.801 228.473 88.782 L 228.473 85.763 220.995 85.763 L 213.516 85.763 213.516 81.578 L 213.516 77.393 221.612 77.393 L 229.708 77.393 229.708 74.374 L 229.708 71.355 217.839 71.355 L 205.969 71.355 205.969 88.851 M234.406 71.664 C 234.516 71.834,236.784 75.523,239.446 79.863 C 242.107 84.202,244.438 87.957,244.625 88.206 C 245.058 88.783,245.624 87.754,239.399 97.696 L 233.982 106.346 238.208 106.346 L 242.433 106.346 242.770 105.832 C 243.116 105.304,244.087 103.705,244.873 102.367 C 245.466 101.358,249.304 94.973,249.559 94.571 C 249.856 94.103,249.779 93.993,253.655 100.443 L 257.203 106.346 261.445 106.346 L 265.687 106.346 265.381 105.832 C 265.212 105.549,264.953 105.101,264.804 104.837 C 264.656 104.573,264.458 104.264,264.364 104.151 C 264.269 104.038,263.834 103.358,263.396 102.642 C 262.123 100.556,261.299 99.225,260.507 97.976 C 260.101 97.334,259.389 96.192,258.925 95.437 C 258.461 94.683,257.750 93.540,257.344 92.899 C 256.939 92.257,256.264 91.163,255.846 90.468 C 255.427 89.773,255.025 89.167,254.952 89.122 C 254.738 88.990,254.800 88.537,255.070 88.273 C 255.207 88.138,255.612 87.533,255.969 86.930 C 256.326 86.326,256.980 85.245,257.421 84.528 C 257.863 83.811,258.542 82.700,258.929 82.058 C 259.317 81.417,259.998 80.305,260.442 79.588 C 260.886 78.871,261.567 77.760,261.955 77.118 C 262.343 76.477,263.022 75.365,263.464 74.648 C 264.554 72.881,265.386 71.480,265.386 71.412 C 265.386 71.381,263.518 71.356,261.235 71.357 L 257.084 71.358 253.560 77.292 C 251.622 80.555,249.955 83.239,249.855 83.256 C 249.753 83.274,249.232 82.531,248.653 81.541 C 248.092 80.580,247.426 79.455,247.173 79.039 C 246.680 78.230,245.349 75.978,244.051 73.756 C 243.609 73.002,243.103 72.153,242.926 71.870 L 242.603 71.355 238.404 71.355 L 234.205 71.355 234.406 71.664 M270.189 88.851 L 270.189 106.346 273.894 106.346 L 277.599 106.346 277.599 100.652 L 277.599 94.957 280.926 94.954 C 286.957 94.947,289.090 94.527,291.750 92.822 C 298.832 88.285,298.137 76.481,290.566 72.697 C 288.086 71.457,287.134 71.355,277.976 71.355 L 270.189 71.355 270.189 88.851 M301.475 88.851 L 301.475 106.346 313.345 106.346 L 325.214 106.346 325.214 103.259 L 325.214 100.172 317.050 100.172 L 308.885 100.172 308.885 95.986 L 308.885 91.801 316.432 91.801 L 323.979 91.801 323.979 88.782 L 323.979 85.763 316.430 85.763 L 308.881 85.763 308.917 81.612 L 308.954 77.461 317.084 77.426 L 325.214 77.391 325.214 74.373 L 325.214 71.355 313.345 71.355 L 301.475 71.355 301.475 88.851 M331.115 88.843 L 331.115 106.346 334.818 106.346 L 338.522 106.346 338.558 100.137 L 338.593 93.928 341.320 93.928 L 344.046 93.928 347.358 100.134 L 350.669 106.341 354.751 106.344 C 356.997 106.345,358.834 106.298,358.834 106.240 C 358.834 106.181,358.736 105.994,358.618 105.825 C 358.499 105.655,358.027 104.823,357.569 103.976 C 356.319 101.663,354.703 98.705,352.538 94.767 C 351.920 93.644,351.448 92.692,351.489 92.651 C 351.530 92.610,351.968 92.355,352.462 92.086 C 355.880 90.220,357.521 87.191,357.522 82.744 C 357.524 77.022,354.707 73.278,349.296 71.807 L 347.925 71.434 339.520 71.387 L 331.115 71.340 331.115 88.843 M361.578 74.374 L 361.578 77.393 366.930 77.393 L 372.281 77.393 372.281 91.870 L 372.281 106.346 375.986 106.346 L 379.691 106.346 379.691 91.870 L 379.691 77.393 385.043 77.393 L 390.395 77.393 390.395 74.374 L 390.395 71.355 375.986 71.355 L 361.578 71.355 361.578 74.374 M284.475 77.533 C 287.850 78.173,289.745 81.468,288.792 85.045 C 287.987 88.070,286.525 88.810,281.201 88.887 L 277.599 88.940 277.599 83.166 L 277.599 77.393 280.667 77.393 C 282.355 77.393,284.068 77.456,284.475 77.533 M345.760 77.586 C 348.714 78.220,350.049 80.047,349.888 83.240 C 349.705 86.884,347.819 87.991,341.750 88.015 L 338.593 88.027 338.558 82.710 L 338.522 77.393 341.714 77.398 C 343.842 77.401,345.190 77.464,345.760 77.586 " stroke="none" fill="#FFFFFF" fill-rule="evenodd"></path></g></svg>